<?xml version="1.0" encoding="iso-8859-1"?>
<!-- Generator: Adobe Illustrator 17.1.0, SVG Export Plug-In . SVG Version: 6.00 Build 0)  -->
<!DOCTYPE svg PUBLIC "-//W3C//DTD SVG 1.1//EN" "http://www.w3.org/Graphics/SVG/1.1/DTD/svg11.dtd">
<svg version="1.1" id="Capa_1" xmlns="http://www.w3.org/2000/svg" xmlns:xlink="http://www.w3.org/1999/xlink" x="0px" y="0px"
	 viewBox="0 0 511 511" style="fill: #7a8288;" xml:space="preserve">
<g>
	<path d="M455.5,40h-400C24.897,40,0,64.897,0,95.5v320C0,446.103,24.897,471,55.5,471h400c30.603,0,55.5-24.897,55.5-55.5v-320
		C511,64.897,486.103,40,455.5,40z M496,415.5c0,22.332-18.168,40.5-40.5,40.5h-400C33.168,456,15,437.832,15,415.5v-320
		C15,73.168,33.168,55,55.5,55h400c22.332,0,40.5,18.168,40.5,40.5V415.5z"/>
	<path d="M471.5,120h-432c-4.142,0-7.5,3.357-7.5,7.5s3.358,7.5,7.5,7.5h432c4.142,0,7.5-3.357,7.5-7.5S475.642,120,471.5,120z"/>
	<path d="M55.5,95c1.97,0,3.91-0.8,5.3-2.2c1.4-1.39,2.2-3.32,2.2-5.3c0-1.971-0.8-3.91-2.2-5.3c-1.39-1.4-3.33-2.2-5.3-2.2
		c-1.98,0-3.91,0.8-5.3,2.2c-1.4,1.39-2.2,3.329-2.2,5.3c0,1.979,0.8,3.91,2.2,5.3C51.59,94.2,53.52,95,55.5,95z"/>
	<path d="M119.5,95c1.97,0,3.91-0.8,5.3-2.2c1.4-1.39,2.2-3.32,2.2-5.3c0-1.971-0.8-3.91-2.2-5.3c-1.39-1.4-3.33-2.2-5.3-2.2
		c-1.98,0-3.91,0.8-5.3,2.2c-1.4,1.39-2.2,3.329-2.2,5.3c0,1.979,0.8,3.91,2.2,5.3C115.59,94.2,117.52,95,119.5,95z"/>
	<path d="M87.5,95c1.98,0,3.91-0.8,5.3-2.2c1.4-1.39,2.2-3.32,2.2-5.3c0-1.971-0.8-3.91-2.2-5.3c-1.39-1.4-3.32-2.2-5.3-2.2
		c-1.97,0-3.91,0.8-5.3,2.2c-1.4,1.39-2.2,3.329-2.2,5.3c0,1.979,0.8,3.91,2.2,5.3C83.59,94.2,85.53,95,87.5,95z"/>
</g>
<g>
</g>
<g>
</g>
<g>
</g>
<g>
</g>
<g>
</g>
<g>
</g>
<g>
</g>
<g>
</g>
<g>
</g>
<g>
</g>
<g>
</g>
<g>
</g>
<g>
</g>
<g>
</g>
<g>
</g>
</svg>
